REM DIRINDEX 1\2,1\4,1\5,1\6,1\7,1\3\8,1\3\9,1\3\10
REM DIRNAME cjc113,folder01,folder02,folder03,folder04,folder05,folder06,folder07,folder08,folder09
TITLE ""
FILE "DB4500_5th_6C_46.mp3" MP3
  TRACK 01 AUDIO
    TITLE "0:"
    INDEX 01 00:00:00
  TRACK 02 AUDIO
    TITLE "8:cjc113_5137"
    INDEX 01 00:00:01
  TRACK 03 AUDIO
    TITLE "0:"
    INDEX 01 00:01:36
  TRACK 04 AUDIO
    TITLE "9:cjc113_5138"
    INDEX 01 00:01:56
  TRACK 05 AUDIO
    TITLE "0:"
    INDEX 01 00:02:71
  TRACK 06 AUDIO
    TITLE "10:cjc113_5139"
    INDEX 01 00:03:10
  TRACK 07 AUDIO
    TITLE "0:"
    INDEX 01 00:06:45
  TRACK 08 AUDIO
    TITLE "8:cjc113_5140"
    INDEX 01 00:07:09
  TRACK 09 AUDIO
    TITLE "0:"
    INDEX 01 00:08:24
  TRACK 10 AUDIO
    TITLE "9:cjc113_5141"
    INDEX 01 00:08:36
  TRACK 11 AUDIO
    TITLE "0:"
    INDEX 01 00:09:63
  TRACK 12 AUDIO
    TITLE "10:cjc113_5142"
    INDEX 01 00:10:04
  TRACK 13 AUDIO
    TITLE "0:"
    INDEX 01 00:13:26
  TRACK 14 AUDIO
    TITLE "8:cjc113_5143"
    INDEX 01 00:13:65
  TRACK 15 AUDIO
    TITLE "0:"
    INDEX 01 00:15:19
  TRACK 16 AUDIO
    TITLE "9:cjc113_5144"
    INDEX 01 00:15:34
  TRACK 17 AUDIO
    TITLE "0:"
    INDEX 01 00:16:57
  TRACK 18 AUDIO
    TITLE "10:cjc113_5145"
    INDEX 01 00:17:00
  TRACK 19 AUDIO
    TITLE "0:"
    INDEX 01 00:21:25
  TRACK 20 AUDIO
    TITLE "8:cjc113_5146"
    INDEX 01 00:21:66
  TRACK 21 AUDIO
    TITLE "0:"
    INDEX 01 00:22:72
  TRACK 22 AUDIO
    TITLE "9:cjc113_5147"
    INDEX 01 00:23:14
  TRACK 23 AUDIO
    TITLE "0:"
    INDEX 01 00:24:51
  TRACK 24 AUDIO
    TITLE "10:cjc113_5148"
    INDEX 01 00:24:65
  TRACK 25 AUDIO
    TITLE "0:"
    INDEX 01 00:27:53
  TRACK 26 AUDIO
    TITLE "8:cjc113_5149"
    INDEX 01 00:28:15
  TRACK 27 AUDIO
    TITLE "0:"
    INDEX 01 00:29:42
  TRACK 28 AUDIO
    TITLE "9:cjc113_5150"
    INDEX 01 00:29:54
  TRACK 29 AUDIO
    TITLE "0:"
    INDEX 01 00:31:12
  TRACK 30 AUDIO
    TITLE "10:cjc113_5151"
    INDEX 01 00:31:29
  TRACK 31 AUDIO
    TITLE "0:"
    INDEX 01 00:34:67
  TRACK 32 AUDIO
    TITLE "8:cjc113_5152"
    INDEX 01 00:35:31
  TRACK 33 AUDIO
    TITLE "0:"
    INDEX 01 00:36:72
  TRACK 34 AUDIO
    TITLE "9:cjc113_5153"
    INDEX 01 00:37:14
  TRACK 35 AUDIO
    TITLE "0:"
    INDEX 01 00:38:41
  TRACK 36 AUDIO
    TITLE "10:cjc113_5154"
    INDEX 01 00:38:55
  TRACK 37 AUDIO
    TITLE "0:"
    INDEX 01 00:41:55
  TRACK 38 AUDIO
    TITLE "8:cjc113_5155"
    INDEX 01 00:42:21
  TRACK 39 AUDIO
    TITLE "0:"
    INDEX 01 00:43:19
  TRACK 40 AUDIO
    TITLE "9:cjc113_5156"
    INDEX 01 00:43:33
  TRACK 41 AUDIO
    TITLE "0:"
    INDEX 01 00:45:73
  TRACK 42 AUDIO
    TITLE "10:cjc113_5157"
    INDEX 01 00:46:19
  TRACK 43 AUDIO
    TITLE "0:"
    INDEX 01 00:50:15
  TRACK 44 AUDIO
    TITLE "8:cjc113_5158"
    INDEX 01 00:50:54
  TRACK 45 AUDIO
    TITLE "0:"
    INDEX 01 00:52:14
  TRACK 46 AUDIO
    TITLE "9:cjc113_5159"
    INDEX 01 00:52:30
  TRACK 47 AUDIO
    TITLE "0:"
    INDEX 01 00:53:51
  TRACK 48 AUDIO
    TITLE "10:cjc113_5160"
    INDEX 01 00:53:68
  TRACK 49 AUDIO
    TITLE "0:"
    INDEX 01 00:57:29
  TRACK 50 AUDIO
    TITLE "8:cjc113_5161"
    INDEX 01 00:57:68
  TRACK 51 AUDIO
    TITLE "0:"
    INDEX 01 00:59:06
  TRACK 52 AUDIO
    TITLE "9:cjc113_5162"
    INDEX 01 00:59:22
  TRACK 53 AUDIO
    TITLE "0:"
    INDEX 01 01:00:60
  TRACK 54 AUDIO
    TITLE "10:cjc113_5163"
    INDEX 01 01:00:70
  TRACK 55 AUDIO
    TITLE "0:"
    INDEX 01 01:04:62
  TRACK 56 AUDIO
    TITLE "8:cjc113_5164"
    INDEX 01 01:05:26
  TRACK 57 AUDIO
    TITLE "0:"
    INDEX 01 01:06:30
  TRACK 58 AUDIO
    TITLE "9:cjc113_5165"
    INDEX 01 01:06:43
  TRACK 59 AUDIO
    TITLE "0:"
    INDEX 01 01:08:03
  TRACK 60 AUDIO
    TITLE "10:cjc113_5166"
    INDEX 01 01:08:19
  TRACK 61 AUDIO
    TITLE "0:"
    INDEX 01 01:14:72
  TRACK 62 AUDIO
    TITLE "8:cjc113_5167"
    INDEX 01 01:15:39
  TRACK 63 AUDIO
    TITLE "0:"
    INDEX 01 01:16:50
  TRACK 64 AUDIO
    TITLE "9:cjc113_5168"
    INDEX 01 01:16:65
  TRACK 65 AUDIO
    TITLE "0:"
    INDEX 01 01:18:29
  TRACK 66 AUDIO
    TITLE "10:cjc113_5169"
    INDEX 01 01:18:45
  TRACK 67 AUDIO
    TITLE "0:"
    INDEX 01 01:21:39
  TRACK 68 AUDIO
    TITLE "8:cjc113_5170"
    INDEX 01 01:22:05
  TRACK 69 AUDIO
    TITLE "0:"
    INDEX 01 01:23:32
  TRACK 70 AUDIO
    TITLE "9:cjc113_5171"
    INDEX 01 01:23:48
  TRACK 71 AUDIO
    TITLE "0:"
    INDEX 01 01:24:73
  TRACK 72 AUDIO
    TITLE "10:cjc113_5172"
    INDEX 01 01:25:11
  TRACK 73 AUDIO
    TITLE "0:"
    INDEX 01 01:28:72
  TRACK 74 AUDIO
    TITLE "8:cjc113_5173"
    INDEX 01 01:29:35
  TRACK 75 AUDIO
    TITLE "0:"
    INDEX 01 01:30:54
  TRACK 76 AUDIO
    TITLE "9:cjc113_5174"
    INDEX 01 01:30:69
  TRACK 77 AUDIO
    TITLE "0:"
    INDEX 01 01:32:23
  TRACK 78 AUDIO
    TITLE "10:cjc113_5175"
    INDEX 01 01:32:37
  TRACK 79 AUDIO
    TITLE "0:"
    INDEX 01 01:36:48
  TRACK 80 AUDIO
    TITLE "8:cjc113_5176"
    INDEX 01 01:37:11
  TRACK 81 AUDIO
    TITLE "0:"
    INDEX 01 01:38:45
  TRACK 82 AUDIO
    TITLE "9:cjc113_5177"
    INDEX 01 01:38:61
  TRACK 83 AUDIO
    TITLE "0:"
    INDEX 01 01:40:62
  TRACK 84 AUDIO
    TITLE "10:cjc113_5178"
    INDEX 01 01:41:05
  TRACK 85 AUDIO
    TITLE "0:"
    INDEX 01 01:44:26
  TRACK 86 AUDIO
    TITLE "8:cjc113_5179"
    INDEX 01 01:44:72
  TRACK 87 AUDIO
    TITLE "0:"
    INDEX 01 01:46:21
  TRACK 88 AUDIO
    TITLE "9:cjc113_5180"
    INDEX 01 01:46:37
  TRACK 89 AUDIO
    TITLE "0:"
    INDEX 01 01:47:60
  TRACK 90 AUDIO
    TITLE "10:cjc113_5181"
    INDEX 01 01:47:72
  TRACK 91 AUDIO
    TITLE "0:"
    INDEX 01 01:53:04
